<?xml version="1.0" encoding="UTF-8"?> <svg xmlns="http://www.w3.org/2000/svg" id="Ebene_2" data-name="Ebene 2" viewBox="0 0 465.71 137.84"><defs><style> .cls-1 { fill: #fff; stroke-width: 0px; } </style></defs><g id="Ebene_1-2" data-name="Ebene 1"><g><g><path class="cls-1" d="m264.44,129.79h-15.76l2.98-10.65-.28-.14c-4.97,8.66-10.79,11.65-22.58,11.65-6.39,0-10.79-.85-14.34-2.98-4.54-2.7-7.1-7.53-7.1-13.49s1.7-15.2,4.83-27.13c4.69-18.32,12.21-24.43,30.11-24.43,11.08,0,16.19,2.98,17.75,10.37l.43-.14,7.95-37.78h16.19l-20.17,94.73Zm-35.79-43.46c-2.27,7.1-4.54,18.89-4.54,23.43,0,6.25,2.84,8.38,11.5,8.38,9.8,0,14.63-3.12,17.04-11.22,2.27-7.53,4.69-19.03,4.69-22.87,0-6.68-2.98-8.66-12.78-8.66-8.95,0-13.35,2.98-15.91,10.94Z"></path><path class="cls-1" d="m339.01,104.51c-1.99,9.94-3.69,14.34-6.96,18.18-4.97,5.96-11.65,7.95-27.41,7.95-9.94,0-14.91-.85-19.17-3.41-4.83-2.98-7.38-8.09-7.38-14.77,0-9.37,4.97-29.83,8.95-36.78,5.25-9.23,14.2-13.07,30.82-13.07,18.04,0,25.28,4.26,25.28,15.05,0,2.7-.28,5.11-1.28,9.23h-15.62c.57-2.7.71-3.83.71-5.4,0-4.83-2.56-6.25-11.79-6.25-9.94,0-13.63,2.7-16.19,11.79-2.56,9.52-4.4,19.32-4.4,24,0,5.82,2.27,7.1,13.07,7.1s13.21-2.27,15.62-13.63h15.76Z"></path><path class="cls-1" d="m408.32,104.51c-1.99,9.94-3.69,14.34-6.96,18.18-4.97,5.96-11.65,7.95-27.41,7.95-9.94,0-14.91-.85-19.17-3.41-4.83-2.98-7.38-8.09-7.38-14.77,0-9.37,4.97-29.83,8.95-36.78,5.25-9.23,14.2-13.07,30.82-13.07,18.04,0,25.28,4.26,25.28,15.05,0,2.7-.28,5.11-1.28,9.23h-15.62c.57-2.7.71-3.83.71-5.4,0-4.83-2.56-6.25-11.79-6.25-9.94,0-13.63,2.7-16.19,11.79-2.56,9.52-4.4,19.32-4.4,24,0,5.82,2.27,7.1,13.07,7.1s13.21-2.27,15.62-13.63h15.76Z"></path><path class="cls-1" d="m425.57,49.42l7.86-6.44,10.7,13.55,16.47-13.55,5.1,6.44-16.47,13.63,10.7,13.55-7.86,6.52-10.7-13.63-16.47,13.63-5.1-6.52,16.47-13.55-10.7-13.63Z"></path></g><g><path class="cls-1" d="m125.71,83.45v-.04c-.56-18.86-4.16-25.96-13.31-32.77-5.46-3.95-11.27-6.05-24.92-9l-8.96-1.68v18.07l3.02.54c12.46,2.21,18.93,3.99,21.98,8.12,3.17,4.29,3.72,12.15,3.72,27.09,0,8.99-.27,17.87-2.21,21.95-1.04,2.18-2.54,3.29-7.88,3.29-8.33,0-11.68-.56-51.15-8.63-21.21-4.42-25.32-9.37-26.52-18.81-.51-4.59-1.02-16.54-1.02-24.09,0-18.44,2.41-18.44,6.78-18.44,2.07,0,6.2.41,10.77,1.32l3.69.7,4.35.83v-18.14s-16.88-2.83-20.2-2.83c-6.71,0-12.33,1.97-16.27,5.7C1.85,41.97,0,46.82,0,64.19c0,15.18.5,21.46,1.8,28.67,2.64,14.73,12.11,26.38,25.34,31.17,14.57,5.16,58.72,13.8,70.54,13.8,8.65,0,16.66-3.17,20.92-8.28,5.6-6.94,7.29-14.07,7.29-30.55l-.17-13.08v-2.48Z"></path><path class="cls-1" d="m175.63,44.97c-2.64-14.73-12.11-26.38-25.34-31.17C135.73,8.63,91.57,0,79.76,0c-8.65,0-16.66,3.17-20.92,8.28-5.6,6.94-7.29,11.63-7.29,28.11l.17,15.52v2.48s0,.04,0,.04c.55,18.86,4.16,25.96,13.31,32.77,5.46,3.95,11.27,6.05,24.92,9l.38.08h.23c.3.05,1,.2,1.53.31.77.16,1.65.35,2.5.5l4.32.78v-18.07l-3.02-.54c-12.46-2.21-18.93-3.99-21.98-8.12-3.17-4.29-3.72-12.15-3.72-27.09,0-8.99.27-17.87,2.21-21.95,1.04-2.18,2.54-3.29,7.88-3.29,8.33,0,11.68.56,51.15,8.63,21.21,4.42,25.32,9.37,26.52,18.81.51,4.59,1.02,16.54,1.02,24.09,0,18.44-2.41,18.44-6.78,18.44-2.07,0-6.2-.41-10.77-1.32l-3.69-.7-4.35-.83v18.14l3.05.52c10.15,1.72,13.83,2.31,17.15,2.31,6.71,0,12.33-1.97,16.27-5.7,5.74-5.33,7.59-12.62,7.59-29.99,0-15.18-.5-19.02-1.8-26.23Z"></path></g></g></g></svg> 