<?xml version="1.0" encoding="UTF-8"?> <svg xmlns="http://www.w3.org/2000/svg" id="Ebene_2" data-name="Ebene 2" viewBox="0 0 177.43 137.84"><defs><style> .cls-1 { fill: #1d1d1b; stroke-width: 0px; } </style></defs><g id="Ebene_1-2" data-name="Ebene 1"><g><path class="cls-1" d="m125.71,83.45v-.04c-.56-18.86-4.16-25.96-13.31-32.77-5.46-3.95-11.27-6.05-24.92-9l-8.96-1.68v18.07l3.02.54c12.46,2.21,18.93,3.99,21.98,8.12,3.17,4.29,3.72,12.15,3.72,27.09,0,8.99-.27,17.87-2.21,21.95-1.04,2.18-2.54,3.29-7.88,3.29-8.33,0-11.68-.56-51.15-8.63-21.21-4.42-25.32-9.37-26.52-18.81-.51-4.59-1.02-16.54-1.02-24.09,0-18.44,2.41-18.44,6.78-18.44,2.07,0,6.2.41,10.77,1.32l3.69.7,4.35.83v-18.14s-16.88-2.83-20.2-2.83c-6.71,0-12.33,1.97-16.27,5.7C1.85,41.97,0,46.82,0,64.19c0,15.18.5,21.46,1.8,28.67,2.64,14.73,12.11,26.38,25.34,31.17,14.57,5.16,58.72,13.8,70.54,13.8,8.65,0,16.66-3.17,20.92-8.28,5.6-6.94,7.29-14.07,7.29-30.55l-.17-13.08v-2.48Z"></path><path class="cls-1" d="m175.63,44.97c-2.64-14.73-12.11-26.38-25.34-31.17C135.73,8.63,91.57,0,79.76,0c-8.65,0-16.66,3.17-20.92,8.28-5.6,6.94-7.29,11.63-7.29,28.11l.17,15.52v2.48s0,.04,0,.04c.55,18.86,4.16,25.96,13.31,32.77,5.46,3.95,11.27,6.05,24.92,9l.38.08h.23c.3.05,1,.2,1.53.31.77.16,1.65.35,2.5.5l4.32.78v-18.07l-3.02-.54c-12.46-2.21-18.93-3.99-21.98-8.12-3.17-4.29-3.72-12.15-3.72-27.09,0-8.99.27-17.87,2.21-21.95,1.04-2.18,2.54-3.29,7.88-3.29,8.33,0,11.68.56,51.15,8.63,21.21,4.42,25.32,9.37,26.52,18.81.51,4.59,1.02,16.54,1.02,24.09,0,18.44-2.41,18.44-6.78,18.44-2.07,0-6.2-.41-10.77-1.32l-3.69-.7-4.35-.83v18.14l3.05.52c10.15,1.72,13.83,2.31,17.15,2.31,6.71,0,12.33-1.97,16.27-5.7,5.74-5.33,7.59-12.62,7.59-29.99,0-15.18-.5-19.02-1.8-26.23Z"></path></g></g></svg> 