<svg xmlns="http://www.w3.org/2000/svg" id="Ebene_1" viewBox="0 0 700.35 273.5"><defs><style>.cls-1{fill:#666;}.cls-2{fill:#54ca13;}</style></defs><polygon class="cls-2" points="149.92 0 69.29 185.43 29.03 91.48 0 91.48 55.29 218.37 81.65 218.37 176.68 0 149.92 0"></polygon><polygon class="cls-2" points="209.3 158.04 186.44 181.51 186.44 218.37 159.68 218.37 159.68 74.24 186.44 74.24 186.44 148.16 257.68 74.24 287.74 74.24 227.21 138.69 291.45 218.37 260.16 218.37 209.3 158.04"></polygon><path class="cls-2" d="M410.87,176.57c0-13.86-10.37-20.8-31.09-20.8h-43.24v41.59h43.24c20.72,0,31.09-6.93,31.09-20.8m-74.33-81.33v39.74h37.88c9.33,0,16.5-1.68,21.52-5.05,5.01-3.36,7.52-8.27,7.52-14.72s-2.51-11.56-7.52-14.93c-5.01-3.36-12.18-5.05-21.52-5.05h-37.88Zm94.3,61.25c4.67,6.11,7,13.69,7,22.75,0,12.49-4.81,22.13-14.41,28.93-9.61,6.79-23.61,10.19-42,10.19h-71.65V74.24h67.53c17.02,0,30.13,3.33,39.33,9.99,9.19,6.66,13.79,15.82,13.79,27.49,0,7.14-1.65,13.45-4.94,18.94-3.29,5.49-7.82,9.75-13.59,12.77,7.96,2.61,14.28,6.97,18.94,13.07"></path><rect class="cls-1" x="5.28" y="251.73" width="2.42" height="21.4"></rect><polygon class="cls-1" points="16.16 251.73 18.58 251.73 18.58 261.24 30.93 261.24 30.93 251.73 33.35 251.73 33.35 273.13 30.93 273.13 30.93 263.5 18.58 263.5 18.58 273.13 16.16 273.13 16.16 251.73"></polygon><path class="cls-1" d="M41.61,251.73h9.2c2.63,0,4.74,.8,6.09,2.14,1.04,1.04,1.65,2.54,1.65,4.22v.06c0,3.55-2.45,5.63-5.81,6.24l6.57,8.74h-2.97l-6.21-8.32h-6.12v8.32h-2.41v-21.4Zm8.99,10.92c3.21,0,5.5-1.65,5.5-4.4v-.06c0-2.63-2.02-4.22-5.47-4.22h-6.61v8.68h6.58Z"></path><polygon class="cls-1" points="65.92 251.73 81.4 251.73 81.4 253.93 68.34 253.93 68.34 261.24 80.02 261.24 80.02 263.44 68.34 263.44 68.34 270.93 81.55 270.93 81.55 273.13 65.92 273.13 65.92 251.73"></polygon><path class="cls-1" d="M99.99,251.73h9.11c2.45,0,4.37,.7,5.6,1.9,.89,.92,1.38,2.05,1.38,3.42v.06c0,2.78-1.71,4.22-3.39,4.95,2.54,.76,4.59,2.23,4.59,5.17v.06c0,3.67-3.09,5.84-7.77,5.84h-9.51v-21.41Zm13.64,5.66c0-2.11-1.68-3.49-4.74-3.49h-6.51v7.37h6.33c2.91,0,4.92-1.32,4.92-3.82v-.06Zm-4.49,6.02h-6.76v7.55h7.19c3.24,0,5.26-1.44,5.26-3.82v-.06c0-2.32-1.96-3.67-5.69-3.67"></path><path class="cls-1" d="M132.19,251.58h2.26l9.76,21.56h-2.6l-2.51-5.66h-11.65l-2.54,5.66h-2.48l9.76-21.56Zm5.96,13.7l-4.86-10.89-4.89,10.89h9.76Z"></path><polygon class="cls-1" points="150.64 251.73 152.9 251.73 166.38 268.88 166.38 251.73 168.74 251.73 168.74 273.13 166.81 273.13 152.99 255.58 152.99 273.13 150.64 273.13 150.64 251.73"></polygon><polygon class="cls-1" points="177 251.73 179.41 251.73 179.41 264.51 191.71 251.73 194.82 251.73 185.65 261.09 195.22 273.13 192.19 273.13 183.97 262.77 179.41 267.39 179.41 273.13 177 273.13 177 251.73"></polygon><rect class="cls-1" x="200.52" y="269.92" width="2.81" height="3.21"></rect><rect class="cls-1" x="222.47" y="251.73" width="2.42" height="21.4"></rect><polygon class="cls-1" points="233.36 251.73 235.78 251.73 235.78 261.24 248.13 261.24 248.13 251.73 250.55 251.73 250.55 273.13 248.13 273.13 248.13 263.5 235.78 263.5 235.78 273.13 233.36 273.13 233.36 251.73"></polygon><path class="cls-1" d="M258.81,251.73h9.2c2.63,0,4.74,.8,6.08,2.14,1.04,1.04,1.65,2.54,1.65,4.22v.06c0,3.55-2.45,5.63-5.81,6.24l6.58,8.74h-2.97l-6.21-8.32h-6.12v8.32h-2.42v-21.4Zm8.99,10.92c3.21,0,5.5-1.65,5.5-4.4v-.06c0-2.63-2.02-4.22-5.47-4.22h-6.61v8.68h6.58Z"></path><polygon class="cls-1" points="294.5 251.73 309.97 251.73 309.97 253.93 296.91 253.93 296.91 261.24 308.59 261.24 308.59 263.44 296.91 263.44 296.91 270.93 310.12 270.93 310.12 273.13 294.5 273.13 294.5 251.73"></polygon><path class="cls-1" d="M317.19,251.73h9.2c2.63,0,4.74,.8,6.08,2.14,1.04,1.04,1.65,2.54,1.65,4.22v.06c0,3.55-2.45,5.63-5.81,6.24l6.58,8.74h-2.97l-6.21-8.32h-6.12v8.32h-2.42v-21.4Zm8.99,10.92c3.21,0,5.5-1.65,5.5-4.4v-.06c0-2.63-2.02-4.22-5.47-4.22h-6.61v8.68h6.58Z"></path><polygon class="cls-1" points="341.5 251.73 356.88 251.73 356.88 253.96 343.92 253.96 343.92 261.61 355.51 261.61 355.51 263.81 343.92 263.81 343.92 273.13 341.5 273.13 341.5 251.73"></polygon><path class="cls-1" d="M362.36,262.49v-.06c0-5.9,4.43-11.07,10.95-11.07s10.89,5.11,10.89,11.01v.06c0,5.9-4.43,11.07-10.95,11.07s-10.89-5.11-10.89-11.01m19.33,0v-.06c0-4.86-3.55-8.84-8.44-8.84s-8.38,3.91-8.38,8.78v.06c0,4.86,3.55,8.84,8.44,8.84s8.38-3.91,8.38-8.78"></path><polygon class="cls-1" points="391.5 251.73 393.92 251.73 393.92 270.9 405.97 270.9 405.97 273.13 391.5 273.13 391.5 251.73"></polygon><path class="cls-1" d="M410.46,262.49v-.06c0-5.87,4.31-11.07,10.73-11.07,3.61,0,5.84,1.04,7.98,2.84l-1.56,1.83c-1.65-1.44-3.49-2.45-6.51-2.45-4.74,0-8.13,4.01-8.13,8.78v.06c0,5.11,3.27,8.9,8.47,8.9,2.45,0,4.71-.95,6.18-2.14v-5.32h-6.51v-2.17h8.84v8.53c-1.99,1.77-4.98,3.27-8.59,3.27-6.73,0-10.89-4.89-10.89-11.01"></path><rect class="cls-1" x="436.92" y="269.92" width="2.81" height="3.21"></rect><polygon class="cls-2" points="700.35 19.83 602.59 244.47 575.48 244.47 518.59 113.93 548.46 113.93 589.88 210.58 672.82 19.83 700.35 19.83"></polygon><path class="cls-1" d="M681.69,101.59c-5.52,4.13-8.78,10.62-8.78,17.52v141.73h-169.3V86.98h116.32c6.1,0,11.63-3.57,14.15-9.13,.57-1.25-.35-2.67-1.72-2.67h-140.54v197.45h192.9V103.11c0-1.55-1.77-2.44-3.02-1.51"></path></svg>